<?xml version="1.0" ?><!DOCTYPE svg  PUBLIC '-//W3C//DTD SVG 1.1//EN'  'http://www.w3.org/Graphics/SVG/1.1/DTD/svg11.dtd'><svg enable-background="new 0 0 512 512" height="512px" id="Layer_1" version="1.1" viewBox="0 0 512 512" width="512px" xml:space="preserve" xmlns="http://www.w3.org/2000/svg" xmlns:xlink="http://www.w3.org/1999/xlink"><g><path d="M506.021,256c0,138.086-111.935,250.021-250.021,250.021C117.914,506.021,5.979,394.086,5.979,256   S117.914,5.979,256,5.979C394.086,5.979,506.021,117.914,506.021,256z" fill="#004972"/><linearGradient gradientUnits="userSpaceOnUse" id="SVGID_1_" x1="152.0273" x2="347.5737" y1="158.2305" y2="158.2305"><stop offset="0" style="stop-color:#FFFFFF"/><stop offset="1" style="stop-color:#D9DBDC"/></linearGradient><circle cx="249.801" cy="158.228" fill="url(#SVGID_1_)" r="97.773" stroke="#DFE0E1"/><path d="M263.691,106.404c-1.682-0.197-3.595-0.007-5.263,0.087c-0.272,5.419,0.122,10.974-0.163,16.4   c-3.866,1.072-7.868-1.824-11.042-0.468c-3.608,1.54-3.201,10.73,0.556,10.668c-2.793,0.848-5.723,0.516-8.599,0.583   c-0.869,6.47,3.69,11.665,7.378,16.617c4.124,5.528,5.44,6.985,12.277,6.131c0.122-3.12,0.013-13.103,5.724-8.512   c1.817,1.458,0.393,7.169,2.916,9.244c2.156,1.784,7.976,2.157,10.607,2.068c1.696-5.948,3.486-11.835-3.608-13.367   c-0.122-2.062-0.882-5.677,0.529-7.284c0.868-0.984,3.567,0.644,4.666-0.57c1.208-1.33,0.367-3.242,0.583-4.883   c0.462-3.418,0.517-8.735-1.994-11.374c-1.084-1.146-3.377-0.834-4.789-2.238c-6.795-6.749,1.709-9.692,0.38-15.654   c-1.044-4.632-9.712-4.178-8.64,1.94c-0.869-0.088-1.357,0.495-2.049,0.61" fill="#DDDFE0"/><path d="M282.925,142.736c-0.516,0.088-1.004-0.054-1.52,0.068c-0.95,4.436,2.767,6.945,6.782,6.267   c0.096-0.95,0.258-2.103-0.014-3.039c-0.719-1.478-2.916-3.228-4.72-3.296" fill="#DDDFE0"/><path d="M245.528,191.887c3.146,6.2,0.637,12.31-6.363,12.907c-0.42,5.629-2.346,12.628-8.6,14.352   c-2.97,0.82-4.91,0.23-7.691,1.573c-4.272,2.048-6.687,4.449-11.868,3.676c-2.266-7.753,6.457-6.159,11.476-6.41   c0.624-2.271,0.8-4.903,0.706-7.304c2.25-0.962,5.276,0.333,7.378-0.63c3.935-1.805,1.764-4.755,2.672-8.58   c1.588-6.626,12.046-4.815,11.761-9.048" fill="#DDDFE0"/><path d="M222.02,189.222c-1.329,2.855-3.566,9.922,2.049,9.528c0-5.066,5.167-8.335,10.159-8.009   c1.18-4.483-2.292-6.511-6.253-6.253c-0.189,0.501,0,0.936-0.163,1.444c-1.912,0.686-3.554,1.052-5.71,1.228   c-0.108,0.787-0.23,1.791-0.082,2.591" fill="#DDDFE0"/><path d="M235.381,69.006c4.395,1.248,3.31,8.213,0.096,10.221c-2.022,1.255-6.254,0.461-8.627,0.461   c-7.989,0.007-12.385,0.108-10.241,9.529c-4.707,2.313-12.398-0.346-14.921,4.625c-3.757,7.427,7.542,10.683-3.703,13.097   c-2.781,0.597-6.904-0.082-8.207,3.635c-1.031,2.93,2.062,4.788,2.903,7.583c3.188,10.784-11.191,11.129-18.665,11.821   c-0.285,5.527-0.38,10.899-0.679,16.393c-3.147,1.221-7.623,3.595-6.795,7.515c6.28,2.13,7.623,15.491,7.406,20.903   c-0.244,6.146-5.127,9.604-2.035,15.993c7,1.112,8.356,9.109,14.27,9.237c-6.579,2.347-11.056-1.784-16.061-5.833   c-6.348-5.127-6.945-10.933-9.779-17.349c-3.324-7.515-0.72-16.44-0.299-24.484c0.393-7.637,2.211-11.896,5.371-19.085   c2.687-6.118,2.958-11.272,7.447-16.183c1.654-1.805,5.114-2.354,6.307-4.375c1.235-2.095-0.704-5.636,0.476-7.928   c0.977-1.899,4.124-2.537,5.67-3.852c2.089-1.79,2.455-3.283,4.083-5.114c2.537-2.842,3.757-3.894,5.372-7.576   c2.916-6.64,8.314-10.323,15.313-12.853c5.398-1.939,9.835-3.33,15.653-3.594c3.12-0.136,8.872,0.875,10.174-1.723" fill="#DDDFE0"/><path d="M203.858,144.873c-2.47,0.589-7.353,11.387-7.542,14.412c-0.461,7,17.064,5.622,22.585,7.46   c-0.177,1.987-0.557,3.893-0.529,5.853c8.857,0.881,11.896-1.878,12.208-10.085c0.366-9.496-8.75-15.721-18.028-15.586   c-0.569-2.564,0.096-7.305,1.683-9.468c2.577-3.513,7.65-2.712,10.227-6.029c5.712-7.325-5.33-15.192-12.099-11.686   c-7.515,3.879,2.523,22.53-10.024,21.472c-0.027,1.587,0.312,3.466,0.447,3.656" fill="#EDEDEE"/><path d="M256,331.202c-83.869,0-161.241,13.843-223.38,37.173C73.761,450.013,158.335,506.021,256,506.021   c97.665,0,182.239-56.008,223.395-137.646C417.241,345.044,339.869,331.202,256,331.202z" fill="#231F20"/><path d="M121.128,301.454v-19.695h11.448v-5.08h-11.448v-9.875h-5.087v9.875h-11.448v5.08h11.448v19.736   c-11.896,1.343-21.16,11.442-21.16,23.711v29.957h47.733v-29.957C142.614,312.822,133.187,302.641,121.128,301.454z" fill="#231F20"/><path d="M391.658,317.081v-19.696h11.449v-5.08h-11.449v-9.875h-5.086v9.875h-11.449v5.08h11.449v19.737   c-11.896,1.343-21.161,11.441-21.161,23.71v29.957h47.747v-29.957C413.158,328.448,403.717,318.268,391.658,317.081z" fill="#231F20"/><path d="M266.824,301.454v-19.695h11.462v-5.08h-11.462v-9.875h-5.073v9.875h-11.461v5.08h11.461v19.736   c-11.909,1.343-21.161,11.442-21.161,23.711v29.957h47.734v-29.957C288.324,312.822,278.896,302.641,266.824,301.454z" fill="#231F20"/><path d="M284.567,157.163c-1.818-0.394-3.08-0.21-4.803,0.583c-0.217,0.095-0.488,0.238-0.746,0.407   c-0.854-0.522-2.414-1.777-3.432-1.594c-1.736,0.298-3.228,1.832-4.693,2.753c-1.099,0.685-3.689,2.062-4.869,3.642   c-0.516-0.21-1.289-0.542-1.655-0.19c-1.275,1.228-2.211,2.177-3.079,3.751c-1.126,2.028-1.167,4.279-2.917,6.049   c-1.953,1.974-3.988,3.405-6.39,4.788c-1.478,0.848-2.617,2.042-4.299,2.496c-1.791,0.488-2.958,0.97-4.504,2.048   c-1.804,1.261-2.713,3.011-3.961,4.836c-0.055,0.081-0.136,0.189-0.244,0.312c-0.515-0.143-1.194,0.055-1.723,0.034   c-2.089-0.082-4.219-0.129-6.335-0.129c-2.021,0-4.042-0.454-6.077-0.468c-1.736-0.014-3.608,0.292-5.385,0.448   c0.122-0.258,0.38-0.536,0.841-0.828c0.326-0.204,0.109-0.671-0.244-0.604c-0.908,0.176-2.726,1.56-3.011,0.265   c-0.136-0.59-0.706-0.59-1.167-0.658c-0.854-0.122-1.763,0.238-2.605,0.312c-1.302,0.108-2.983-2.781-3.852-3.52   c-0.598-0.509-1.777-0.244-2.429-0.163c-1.37,0.163-2.116,0.074-3.229-0.875c-1.139-0.97-2.468-1.641-3.865-2.116   c0.136-0.21,0.366-0.292,0.706-0.637c0.366-0.366,1.125-0.732,1.573-0.957c0.435-0.216,0.747-0.603,0.638-1.132   c-0.136-0.691-0.272-1.37-0.394-2.055c3.351-0.501,6.104,3.622,9.36,2.354c0.895-0.346,1.627-0.983,1.695-2.008   c0.082-1.146-0.773-1.939-0.84-2.97c0.61-0.488,1.329-0.828,1.56-1.696c0.204-0.726-0.014-1.939-0.787-2.319   c-0.569-0.285-1.316-0.082-1.912,0.095c-0.149,0.047-0.515,0.223-0.637,0.427c-0.557,0.258-1.113,0.577-1.669,0.821   c-0.013-0.075-0.013-0.156-0.027-0.23c-0.067-0.366-0.149-0.72-0.204-1.079c-0.108-0.618-0.556-0.386-1.031-0.393   c-0.556-0.007-0.664,0.203-0.651,0.718c0.014,0.306,0.054,0.618,0.149,0.916c0.041,0.136,0.054,0.278,0.082,0.414   c-0.461-0.062-0.909-0.285-1.33-0.767c-1.235-1.431-0.122-3.839,1.79-3.635c1.072,0.108,1.75,0.59,2.74,0.495   c0.041,0.034,0.081,0.055,0.122,0.055c0.068,0,0.109-0.007,0.136-0.021c0.067,0.006,0.122-0.021,0.149-0.082   c0.191-0.386,0.732-0.305,1.004-0.569c0.393-0.394,0.271-0.821,0.257-1.35c0-0.346-0.122-0.671-0.447-0.861   c-0.176-0.102-0.338-0.183-0.529-0.257c-0.135-0.055-0.474-0.292-0.718-0.556c0.067-0.183,0.149-0.36,0.204-0.549   c0.014-0.007,0.014-0.007,0.026-0.014c0.354-0.474,0.761-0.726,1.14-1.132c0.095-0.102,0.122-0.251,0.055-0.366   c-0.271-0.448-0.841-0.712-1.085-1.139c-0.746-1.309-0.136-2.598,0.434-3.765c0.096-0.203-0.014-0.455-0.258-0.455   c-5.1,0,1.33-3.872-0.896-5.263c-2.712-1.709-4.137-4.667-6.754-6.524c-0.488-0.339-1.126-0.916-1.804-1.37   c0.338-0.468,0.841-0.821,1.343-1.099c0.122-0.074,0.258-0.128,0.407-0.176c-0.055,0.108-0.096,0.217-0.122,0.326   c-0.23,0.814,1.438,1.688,1.979,1.14c0.204-0.197,0.082-0.747-0.013-0.964c-0.258-0.542-0.638-0.807-1.208-0.861   c0.557-0.882,1.709-1.858,2.103-2.13c0.068-0.047,0.041-0.156-0.054-0.163c-0.638-0.021-1.018,0.508-1.451,0.929   c-0.407,0.38-0.801,0.861-1.072,1.383c-0.814,0.136-1.615,0.759-2.075,1.506c-0.354-0.224-0.72-0.4-1.072-0.481   c0.203-0.828,0.706-1.642,1.084-2.34c0.583-1.091,1.29-2.089,2.144-2.991c0.054-0.054-0.014-0.135-0.068-0.095   c-1.167,0.827-1.832,2.075-2.496,3.323c-0.326,0.61-0.679,1.343-0.814,2.082c-0.041-0.006-0.082-0.02-0.122-0.02   c-0.163-0.007-0.326-0.014-0.502-0.021c-0.026-0.163-0.041-0.332-0.055-0.481c-0.067-0.434-0.216-0.807-0.407-1.207   c-0.338-0.774-0.881-1.214-1.641-1.56c-0.082-0.041-0.149,0.067-0.068,0.122c0.828,0.61,1.452,1.207,1.764,2.211   c0.095,0.278,0.136,0.604,0.204,0.909c-1.601-0.068-3.242-0.041-4.829,0.135c-1.75,0.19-3.514,0.678-5.168,1.282   c-0.679,0.244-2.116,1.458-2.455,1.709c-0.15,0.095-1.072,0.739-1.316,0.922c-0.136-0.108-0.38-0.081-0.42,0.129   c-0.163,0.78-0.285,0.95,0.353,1.594c1.071,1.065,1.465,0.821-0.177,1.682c-0.067,0.041-0.148,0.149-0.136,0.237   c0.204,1.729,2.402,1.615-0.61,2.381c-0.637,0.163,0.136,2.408-0.027,2.319c-0.542-0.299-2.292-0.753-2.713-0.021   c-0.148,0.258-0.041,1.071-0.026,1.208c-0.014-0.346-1.044-0.902-1.357-1.072c-0.135-0.075-0.285,0-0.338,0.143   c-0.787,2.319,0.176,4.788,1.681,6.748c-0.027,0.054-0.054,0.116-0.082,0.176c-0.216,0.563-0.23,0.97-0.23,1.587   c0,1.526-0.041,2.421-0.692,3.853c-0.366,0.793-0.081,1.411,0.543,1.926c1.75,1.424,0.827,2.516,0.623,4.368   c0,0.041,0.068,0.054,0.082,0.007c0.366-1.493,1.316-2.564,0.204-3.86c-0.854-0.997-2.048-0.691-0.936-3.126   c0.122-0.278,0.272-0.821,0.38-1.133c0.298-0.827-0.353-2.72,0.217-3.663c0.624,0.8,1.343,1.512,2.062,2.082   c-0.854,0.461-1.153,1.411-1.261,2.523c-0.027,0.257,0.149,0.638,0.394,0.949c-0.638,1.058,0.407,2.604,1.221,3.337   c0.026,0.027,0.094-0.013,0.054-0.047c-0.353-0.468-0.719-0.936-1.03-1.438c-0.326-0.645-0.34-1.194-0.055-1.641   c0.353,0.333,0.8,0.508,1.112,0.176c0.61-0.638-0.055-1.37-0.801-0.882c-0.189,0.122-0.338,0.258-0.447,0.407   c-0.135-0.122-0.244-0.407-0.285-0.861c-0.095-0.97,0.407-1.933,1.194-2.442c0.136,0.102,0.258,0.197,0.38,0.292   c0.488,0.353,1.03,0.747,1.587,1.153c-0.312,0.916-0.326,2.014-0.299,2.841c0.014,0.495,0.149,1.099,0.61,1.377   c2.144,1.248,0.854,2.774,0.502,4.565c-0.014,0.081,0.096,0.108,0.108,0.034c0.461-1.289,1.275-2.51,0.61-3.9   c-0.204-0.427-0.393-0.678-0.868-0.827c-1.207-0.38-1.071-2.415-0.461-3.941c1.492,1.092,3.052,2.313,4.11,3.453   c1.316,1.417,2.496,2.882,2.333,4.951c-0.027,0.93-0.299,1.729-0.814,2.401c-0.095,0.122-0.271,0.394-0.461,0.665   c-2.319,1.363-4.177,0.787-6.714,0.787c-0.625,0-1.357,0.143-1.914,0.468c-2.007,1.173-3.526,1.858-5.981,0.645   c-0.706-0.347-3.5-0.686-4.313-0.251c-1.058-0.096-2.158-0.007-2.958,0.495c-4.449,2.821-7.623,6.938-10.838,11.055   c-1.248,1.594-3.581,3.066-4.436,4.911c-1.153,2.462-2.957,3.527-4.923,5.188c-0.163,0.142-0.217,0.461,0.027,0.556   c0.244,0.095,0.488,0.204,0.746,0.19c1.6-0.102,2.794-0.217,0.257,1.709c-0.19,0.142-0.108,0.4,0.054,0.468   c-0.529,0.488-1.058,0.97-1.41,1.465c-1.275,1.777-2.062,3.859-2.998,5.827c-0.813,1.702-0.325,4.476,0.881,6.165   c0.15,0.407,0.353,0.813,0.583,1.2c0.285,2.747,0.027,5.589,0.177,8.383c0.081,1.383,0.637,2.781,0.719,4.178   c0.095,1.79,0.258,3.554,0.583,5.317c0.529,2.95,1.207,5.717,2.103,8.593c1.248,3.995,3.35,7.454,3.541,11.666   c-0.258,0.23-0.502,0.475-0.706,0.624c-0.515,0.38-0.854,1.031-0.95,1.655c-0.094,0.57,0.598,1.193,0.869,1.641   c0.23,0.379,0.502,1.011,0.909,1.295c-0.598,0.59-1.262,1.153-1.709,1.784c-0.706,0.99-1.141,2.156-1.466,3.317   c-0.366,1.356-0.095,3.282,0.448,4.998c-0.774,1.35-1.344,2.896-1.94,4.165c-0.298,0.645-0.962,1.438-1.099,2.157   c-0.041,0.204-0.067,1.431-0.787,0.909c-0.637-0.468-0.38-0.875-0.285-1.642c0.026-0.203,0.108-3.113-1.031-2.354   c-0.759,0.502-0.57,1.838-1.044,2.469c-0.366,0.475-1.099,1.601-1.058,2.211c0.082,1.37,2.889,3.093,3.798,4.205   c0.475,0.583,1.627,2.801,2.374,2.849c0.8,0.054,2.008-0.753,2.415-1.431c-0.638,1.065-0.72,2.109-2.185,2.381   c-1.071,0.204-2.089-0.611-3.065-0.354c-0.149,0.041-0.244,0.231-0.189,0.366c0.665,1.506,1.221,2.198,2.821,2.788   c0.57,0.21,1.601,0.766,2.143,0.149c1.18-1.33,2.673-2.38,3.867-3.717c0.99-1.099,1.478-2.875,2.021-4.354   c0.026,0.055,0.054,0.108,0.081,0.163c0.597,1.357-0.488,2.923-1.139,4.124c-0.583,1.072-1.804,2.652-1.031,3.887   c0.068,0.095,0.19,0.135,0.299,0.102c1.329-0.414,2.441-2.428,3.255-3.526c0.99-1.336,2.563-3.093,2.333-4.911   c-0.204-1.642-0.57-3.513-1.221-4.999c-0.353-0.841-0.502-1.716-0.61-2.598c0.569,0.834,1.288,1.56,1.98,1.905   c1.303,0.672,3.676,0.93,4.762-0.285c0.258-0.292-0.055-0.617-0.272-0.766c-0.46-0.326-0.434,0.21-1.384-0.515   c-0.732-0.57-1.166-1.194-1.709-1.913c-0.827-1.119-1.532-2.442-2.346-3.601c-0.625-0.909-1.805-2.015-2.32-3.099   c0.489-2.327,1.356-4.809,2.55-6.823c0.963-1.601-2.51-2.137-2.388-3.771c0.136-1.662,0.339-2.312-0.854-3.643   c0-0.013-0.338-0.278-0.678-0.467c-0.095-3.418-0.895-9.489-0.881-10.173c0.067-2.822-1.018-5.609-0.842-8.404   c0.122-1.878,0.231-3.771,0.312-5.656c0.312-1.879,0.529-3.777,0.977-5.643c0.285-1.173,0.556-1.96,0.461-3.201   c-0.013-0.116-0.57-1.981-0.556-1.988c0.84-0.63,1.288-1.756,1.994-2.542c1.072-1.153,1.818-2.232,2.523-3.629   c0.502-0.983,1.614-1.675,2.361-2.502c0.216,0.739,0.57,1.444,1.207,1.512c0.096,0.007,0.177-0.027,0.244-0.081   c0.448,1.926,1.302,3.812,1.75,5.67c0.014,0.061,0.041,0.108,0.081,0.148c-0.203,2.693-0.216,5.386-0.189,8.125   c0.014,2.144-0.109,4.205-0.258,6.349c-0.136,1.946,0.868,3.526,0.732,5.459c-0.625-0.42-1.573-0.766-2.089-0.949   c-0.244-0.082-0.542,0.197-0.448,0.448c0.313,0.8,0.61,1.6,0.991,2.38c-0.122-0.257-0.665-0.42-1.383-0.448   c-0.244-0.013-0.434,0.299-0.285,0.502c0.625,0.909,1.628,1.492,2.293,2.367c0.705,0.943-0.909,2.591-0.543,3.846   c0.163,0.529,0.706,1.662,0.041,2.021c-0.217,0.115-0.407,0.4-0.529,0.604c-0.218,0.359-0.61,0.801-0.204,1.208   c0.529,0.522,1.926-0.102,1.926,0.929c-0.014,1.696,0.448,3.513,0.746,5.155c0.394,2.177,3.052,4.66,4.979,5.744   c-0.122,0.557-0.244,1.106-0.366,1.649c-0.598,2.706-1.873,4.435-3.907,6.158c-0.163,0.129-0.082,0.427,0.122,0.461   c1.492,0.285,1.967,0.244,0.95,1.716c-0.366,0.549-0.434,1.2-0.082,1.716c0.067,0.108,0.189,0.163,0.326,0.128   c0.556-0.122,1.017-0.4,1.438-0.719c-0.502,0.95-1.004,1.913-1.411,2.923c-0.597,1.492-1.166,2.998-1.831,4.462   c-0.732,1.635-0.854,3.446-1.614,5.101c-1.235,2.706-2.415,6.009-4.327,8.294c-2.266,2.733-5.507,4.795-8.586,6.484   c-5.005,2.747-6.335,7.752-8.519,12.608c-0.679,1.485-1.832,2.706-2.523,4.198c-0.786,1.668-1.37,3.418-2.116,5.101   c-1.044,2.347-1.519,7.053-4.258,8.118c-0.909-0.156-1.804-0.393-2.849-0.74c-1.099-0.366-2.428-0.209-3.133,0.767   c-1.424,1.926-1.817,3.174-1.479,5.507c0.177,1.132,1.167,2.021,1.438,3.126c0.434,1.757,0.718,3.262,0.271,5.066   c-0.704,2.835-4.367,7.549-1.437,10.316c3.594,3.378,7.69-0.963,11.231,1.479c1.247,0.868,2.645-0.915,3.92-0.658   c1.437,0.286,3.092,0.21,4.177-0.82c2.103-2.028-1.113-6.185-3.608-5.643c-1.275,0.278-1.289,0.264-2.51,0.875   c-0.067,0.034-0.434-2.468-0.529-3.011c-0.407-2.163-2.998-5.019-1.764-7.359c0.882-1.675,1.587-3.31,1.791-5.215   c0.041-0.4,0.081-0.82,0.109-1.241c0.026-0.014,0.067-0.034,0.081-0.067c0.827-1.045,1.817-2.225,2.74-3.167   c1.03-1.065,2.726-1.885,3.554-3.127c1.872-2.794,4.897-4.734,6.688-7.521c1.75-2.733,3.581-4.971,4.964-7.949   c1.099-2.333,4.599-7.921,7.556-7.928c2.17,0,1.533-2.672,2.699-3.452c1.316-0.882,3.879-2.279,4.422-3.805   c0.189-0.563-0.041-2.062-0.028-2.625c0.014-1.526,1.153-4.456,1.764-5.88c0.583-1.329,1.397-3.011,2.198-4.225   c0.393-0.617,0.529-1.356,0.745-2.055c0.082,0.304,0.204,0.596,0.312,0.834c0.095,0.176,0.19,0.461,0.312,0.752   c0.176,1.221,0.624,2.767,0.393,3.086c-0.501,0.705-0.379,1.329,0.231,1.899c0.977,0.929,0.42,2.76,1.465,3.628   c0.122,0.102,0.338,0.081,0.366-0.095c0.23-1.037,1.235-2.604,0.692-3.588c-0.665-1.18,0.502-2.712-0.244-3.968   c-0.868-1.458,1.099-4.856,1.058-6.551c-0.026-0.706,0.651-1.302,0.366-1.94c-0.285-0.644,1.235-0.861,1.058-1.566   c1.452,2.109,3.731,3.526,5.385,5.473c0.963,1.146,1.601,2.21,1.601,3.764c0,0.088,0.041,0.156,0.095,0.224   c1.125,1.295,2.17-0.813,3.622,1.574c0.691,1.146,1.505,1.729,2.577,2.564c1.194,0.929,2.116,2.292,3.133,3.418   c0.977,1.092-1.017,2.312,0.923,2.91c1.994,0.61,0.257,2.462,0.868,3.52c0.502,0.841,1.248,0.78,1.248,2.109   c0,0.447,0.271,0.97,0.434,1.37c0.38,0.889,0.136,2.462,0.136,3.459c0,1.113,0.678,4.313,0.054,5.229   c-1.152,1.723-1.451,4.219-1.803,6.192c-0.258,1.52,0.298,4.619,1.152,5.874c0.122,0.183,0.407,0.163,0.475-0.061   c0.285-0.942,0.054-1.852,0.19-2.842c0-0.014,0.407-1.221,0.407-1.214c0.109,0.379,0.028,0.875,0.19,1.241   c0.448,0.99,0.515,1.919,1.221,2.753c0.094,0.108,0.271,0.068,0.338-0.041c0.299-0.522,0.692-0.997,1.14-1.417   c0.081,0.705,0.285,1.424,0.679,2.177c0.665,1.323,1.668,2.306,2.767,3.276c1.696,1.506,3.133,3.778,3.934,5.894   c0.556,1.458,1.98,2.625,2.578,4.157c0.474,1.208,0.922,2.652,1.627,3.717c0.678,1.058,1.084,2.259,1.723,3.35   c0.881,1.492,0.407,2.456,0.407,4.056c0.013,2.686,0.678,1.35,2.767,3.12c1.75,1.472-0.773,5.419,2.468,6.111   c1.316,0.278,4.042,0.657,4.938-0.773c1.004-1.601,1.303-3.31,2.972-4.47c1.532-1.072,3.052-1.125,4.801-1.417   c1.913-0.312,3.446-1.316,5.48-1.431c0.814-0.048,1.357,0,1.994-0.618c0.651-0.651,1.37-1.289,1.627-2.218   c0.285-1.037-0.176-2.184,1.275-1.898c1.587,0.312,2.537-2.795,2.876-3.744c0.786-2.225,0.434-4.029-1.804-5.175   c-1.208-0.63-2.754,0.299-3.418,1.282c-1.601,2.387-5.549,3.133-8.193,3.859c-1.927,0.522-3.758,1.214-5.792,1.295   c-1.343,0.054-2.591-0.285-3.649-1.139c-0.393-0.319-0.867-1.221-1.302-1.452c-2.794-1.512-5.249-4.944-6.104-7.948   c-0.476-1.73-0.747-3.473-1.018-5.243c-0.19-1.261,0.122-3.14-0.516-4.313c-0.787-1.445-1.329-2.93-2.224-4.314   c-0.027-0.047-0.068-0.094-0.095-0.142c1.343,0.264,2.292,1.058,2.835,2.394c0.041,0.271,0.46,0.197,0.46-0.061   c0-0.203-0.013-0.4-0.013-0.604c0.067,0,0.082-0.035,0-0.136c-0.082-2.924-0.665-5.344-1.479-8.228   c-0.407-1.41-1.655-2.089-2.726-2.916c-2.388-1.852-0.014-3.941-0.502-5.935c-0.271-1.099-1.153-1.885,0.027-2.807   c0.624-0.488,1.071-1.214,0.841-2.035c-0.068-0.238-0.177-0.482-0.353-0.658c-1.03-1.153-0.488-2.95-0.339-4.287   c0.176-1.445-0.271-2.313-1.222-3.33c-1.41-1.485-2.834-2.963-4.124-4.544c-1.329-1.628-3.214-2.672-4.543-4.354   c-2.415-3.025-3.432-6.897-6.131-9.691c-1.534-1.601-3.473-2.815-5.114-4.3c-1.438-1.29-2.604-3.487-3.418-5.229   c-0.638-1.363-1.438-2.72-2.307-3.981c0.055-0.095,0.109-0.183,0.163-0.278c0.543-0.807,1.479-1.194,1.953-2.028   c0.136-0.21,0.19-0.597,0.109-0.813c-0.435-1.167-0.041-2.3-0.366-3.466c-0.19-0.719-1.153-1.919-1.058-2.557   c0.135-0.766,0.298-1.735,0.041-2.496c-0.177-0.542-1.004-1.119-1.818-1.607c0.068-0.841-0.054-1.668-0.054-2.523   c0-1.424,1.384-1.756,1.926-2.787c0.041-0.102,0.041-0.231-0.041-0.312c-0.46-0.448-1.355-0.014-2.021,0.394   c0.204-0.435,0.366-0.855,0.38-1.384c0.176-0.122,0.379-0.183,0.475-0.394c0.027-0.081-0.014-0.156-0.095-0.169   c-0.298-0.02-0.393-0.075-0.692,0.075c-0.352,0.19-0.596,0.495-0.895,0.746c-0.067,0.047-0.122,0.116-0.163,0.19   c-0.421-0.882-0.909-1.736-1.235-2.646c-0.542-1.499,0.814-3.018,1.33-4.32c0.338-0.881,0.99-2.109,0.271-2.998   c-0.95-1.18-0.787-2.801-1.194-4.266c0.761-0.258,1.561-0.305,2.226-0.814c1.112-0.854,2.522-1.207,3.54-2.245   c1.193-1.208,2.184-2.571,3.242-3.894c1.857-2.353,3.566-4.605,4.91-7.297c0.149-0.278,0.244-0.699,0.298-1.167   c0.218-0.21,0.421-0.461,0.638-0.624c0.57-0.414,1.125-0.943,1.519-1.526c0.394-0.604,0.787-1.214,1.275-1.736   c0.163-0.176,0.339-0.353,0.475-0.557c0.868,0.319,1.831,0.156,2.767,0.326c1.397,0.258,2.7,0.488,4.137,0.502   c0.529,0.007,1.519,0.217,1.98-0.189c1.519-1.35,3.771,0.013,5.167,0.705c0.163,0.088,0.407-0.013,0.394-0.23   c-0.028-0.685-0.258-1.309-0.326-2.014c2.767,0.597,5.833,0.4,8.586,0.535c1.994,0.102,4.028-0.711,5.886-1.295   c1.099-0.346,2.442-0.882,3.717-1.208c0.326,0.176,0.651,0.427,0.828,0.556c0.529,0.374,1.262,0.515,1.845,0.787   c0.543,0.257,1.573,0.57,2.211,0.46c1.343-0.223,1.329-2.841,1.424-4.327c3.174-2.129,6.538-3.899,9.142-6.843   c1.778-1.994,3.513-3.913,5.045-6.117c0.733-1.052,1.397-2.239,2.13-3.364c0.842-0.217,0.651-0.108,1.302-0.78   c1.737-1.776,2.333-0.475,3.826-0.475c1.546,0,2.944,0.759,4.543,0.753c1.981,0,3.757-1.234,5.779-0.977   c1.668,0.21,2.673,2.543,4.26,2.7c2.306,0.23,2.401-1.044,0.963-2.618c-1.058-1.153-2.306-2.205-3.866-2.306   c-0.814-0.047-1.452-0.461-2.211-0.38c-0.854,0.088-1.031-1.384-1.045-2.021c0.978-0.624,2.008-1.038,3.08-1.567   c4.49-2.211,3.744-0.841,5.751,0.278c1.424,0.794,1.886,2.028,3.405,2.272c0.977,0.156,1.044,0.732,1.791,0.854   c0.203,0.034,0.434-0.169,0.299-0.373c-0.773-1.194-1.791-2.259-2.781-3.27c-0.516-0.542-1.777-3.018-2.767-3.188   c-1.52-0.258-3.188-0.156-4.762,0.271c0.787-1.044,0.691-2.394,1.831-3.194c1.438-1.024,3.486,0.014,5.06,0.698   c1.479,0.638,3.608,0.577,5.223-0.027c0.135-0.055,0.827,0.834,0.84,0.671C292.773,159.326,286.384,157.556,284.567,157.163z    M203.98,139.528c0.352,0.007,0.705,0.149,0.962,0.536c0.502,0.732,0,0.808-0.488,0.686   C203.736,140.566,203.708,140.084,203.98,139.528z M157.101,247.922c0.026,0.271-0.394,0.428-0.516,0.177   c-0.638-1.289-0.963-2.774-1.397-4.137c-0.448-1.384-1.004-2.74-1.29-4.165c-0.244-1.288-0.61-2.753-0.366-4.069   c0.313-1.614,0.598-3.195,0.706-4.836c0.026-0.359,0.529-0.407,0.569-0.034c0,0.007,0,0.014,0,0.021   c0.014,0.027,0.027,0.054,0.041,0.088c0.325,1.214,0.271,2.516,0.366,3.764c0.122,1.547,0.38,3.032,0.637,4.559   C156.328,242.15,156.749,245.047,157.101,247.922z M182.602,269.707c0.028-0.177,0.041-0.346,0.068-0.502   C182.751,269.388,182.71,269.551,182.602,269.707z" fill="#231F20"/></g></svg>