<?xml version="1.0" encoding="iso-8859-1"?>
<!-- Generator: Adobe Illustrator 19.0.0, SVG Export Plug-In . SVG Version: 6.00 Build 0)  -->
<svg version="1.1" id="Layer_1" xmlns="http://www.w3.org/2000/svg" xmlns:xlink="http://www.w3.org/1999/xlink" x="0px" y="0px"
	 viewBox="0 0 495 495" style="enable-background:new 0 0 495 495;" xml:space="preserve">
<g>
	<path style="fill:#00AA95;" d="M285.14,247.5c0-13.405-7.055-25.192-17.64-31.862v63.723
		C278.085,272.692,285.14,260.905,285.14,247.5z"/>
	<path style="fill:#00AA95;" d="M247.5,71.48c0,0.003,20,0.003,20,0.003v101.002c33.147,8.846,57.64,39.119,57.64,75.015
		s-24.493,66.169-57.64,75.015v101.002h-20c0,0.003,247.5,0.003,247.5,0.003v-87.043h-90.651V158.523H495V71.48H247.5z"/>
	<rect x="444.349" y="198.523" style="fill:#00AA95;" width="50.651" height="97.954"/>
	<rect y="198.523" style="fill:#00DDC2;" width="50.651" height="97.954"/>
	<path style="fill:#00DDC2;" d="M227.5,423.517V322.515c-33.147-8.846-57.64-39.119-57.64-75.015s24.493-66.169,57.64-75.015V71.483
		h20C247.5,71.48,0,71.48,0,71.48v87.043h90.651v177.954H0v87.043h247.5C247.5,423.517,227.5,423.517,227.5,423.517z"/>
	<path style="fill:#00DDC2;" d="M209.86,247.5c0,13.405,7.055,25.192,17.64,31.862v-63.723
		C216.915,222.308,209.86,234.095,209.86,247.5z"/>
	<path style="fill:#FFFFFF;" d="M209.86,247.5c0-13.405,7.055-25.192,17.64-31.862v-43.154c-33.147,8.846-57.64,39.119-57.64,75.015
		s24.493,66.169,57.64,75.015v-43.154C216.915,272.692,209.86,260.905,209.86,247.5z"/>
	<path style="fill:#E0E0E2;" d="M227.5,423.517h40V322.515c33.147-8.846,57.64-39.119,57.64-75.015s-24.493-66.169-57.64-75.015
		V71.483h-40V423.517z M285.14,247.5c0,13.405-7.055,25.192-17.64,31.862v-63.723C278.085,222.308,285.14,234.095,285.14,247.5z"/>
	<polygon style="fill:#FFFFFF;" points="90.651,158.523 0,158.523 0,198.523 50.651,198.523 50.651,296.477 0,296.477 0,336.477 
		90.651,336.477 	"/>
	<polygon style="fill:#E0E0E2;" points="404.349,336.477 495,336.477 495,296.477 444.349,296.477 444.349,198.523 495,198.523 
		495,158.523 404.349,158.523 	"/>
</g>
<g>
</g>
<g>
</g>
<g>
</g>
<g>
</g>
<g>
</g>
<g>
</g>
<g>
</g>
<g>
</g>
<g>
</g>
<g>
</g>
<g>
</g>
<g>
</g>
<g>
</g>
<g>
</g>
<g>
</g>
</svg>
