<?xml version="1.0" encoding="iso-8859-1"?>
<!-- Generator: Adobe Illustrator 19.0.0, SVG Export Plug-In . SVG Version: 6.00 Build 0)  -->
<svg version="1.1" id="Layer_1" xmlns="http://www.w3.org/2000/svg" xmlns:xlink="http://www.w3.org/1999/xlink" x="0px" y="0px"
	 viewBox="0 0 481.917 481.917" style="enable-background:new 0 0 481.917 481.917;" xml:space="preserve">
<g>
	<path style="fill:#FF0C38;" d="M462.5,333.315v-23.96c0-28.02-21.02-53.9-48.88-60.19l-0.86-0.18
		c-0.8-0.14-79.51-14.34-102.81-19.61c-9.27-2.09-17.7-12.64-17.7-22.14v-9.099H199.9v-40h92.35v-30H199.9v-40h92.35V7.145
		l-115.92,10.52v315.65H462.5z"/>
	<polygon style="fill:#FF3F62;" points="176.33,17.665 60.41,28.185 60.41,333.315 176.33,333.315 	"/>
	<path style="fill:#3E3D42;" d="M60.381,373.315c-11.895,10.655-19.397,26.119-19.397,43.307c0,32.064,26.086,58.15,58.15,58.15
		V373.315H60.381z"/>
	<path style="fill:#3E3D42;" d="M222.697,373.315c-11.895,10.655-19.397,26.119-19.397,43.307c0,32.064,26.086,58.15,58.15,58.15
		V373.315H222.697z"/>
	<path style="fill:#3E3D42;" d="M385.014,373.315c-11.895,10.655-19.397,26.119-19.397,43.307c0,32.064,26.086,58.15,58.151,58.15
		V373.315H385.014z"/>
	<path style="fill:#1D1D1F;" d="M462.5,373.297v-39.982H0v40h99.134v101.457c32.064,0,58.15-26.086,58.15-58.15
		c0-17.188-7.502-32.652-19.397-43.307H261.45v101.457c32.064,0,58.15-26.086,58.15-58.15c0-17.188-7.502-32.652-19.397-43.307
		h123.564v101.457c32.063,0,58.15-26.086,58.15-58.15C481.917,399.424,474.406,383.953,462.5,373.297z"/>
	<rect x="199.9" y="158.136" style="fill:#1D1D1F;" width="92.35" height="40"/>
	<rect x="199.9" y="88.137" style="fill:#1D1D1F;" width="92.35" height="40"/>
</g>
<g>
</g>
<g>
</g>
<g>
</g>
<g>
</g>
<g>
</g>
<g>
</g>
<g>
</g>
<g>
</g>
<g>
</g>
<g>
</g>
<g>
</g>
<g>
</g>
<g>
</g>
<g>
</g>
<g>
</g>
</svg>
