<?xml version="1.0" encoding="iso-8859-1"?>
<!-- Generator: Adobe Illustrator 19.0.0, SVG Export Plug-In . SVG Version: 6.00 Build 0)  -->
<svg version="1.1" id="Layer_1" xmlns="http://www.w3.org/2000/svg" xmlns:xlink="http://www.w3.org/1999/xlink" x="0px" y="0px"
	 viewBox="0 0 495 495" style="enable-background:new 0 0 495 495;" xml:space="preserve">
<g>
	<path style="fill:#EE8700;" d="M267.5,71.48v108.946c28.882,8.627,50,35.423,50,67.074s-21.118,58.446-50,67.074V423.52H495
		v-64.887h-28.726c-61.279,0-111.134-49.854-111.134-111.133s49.854-111.133,111.134-111.133H495V71.48H267.5z"/>
	<path style="fill:#EE8700;" d="M277.5,247.5c0-8.863-3.868-16.838-10-22.335v44.67C273.632,264.338,277.5,256.363,277.5,247.5z"/>
	<path style="fill:#EE8700;" d="M395.141,247.5c0,39.223,31.911,71.133,71.134,71.133H495V267.5h-49.859v-40H495v-51.133h-28.726
		C427.051,176.367,395.141,208.277,395.141,247.5z"/>
	<path style="fill:#FF9811;" d="M177.5,247.5c0-31.651,21.118-58.446,50-67.074V71.48H0v64.887h28.726
		c61.279,0,111.134,49.854,111.134,111.133S90.005,358.633,28.726,358.633H0v64.887h227.5V314.574
		C198.618,305.946,177.5,279.151,177.5,247.5z"/>
	<path style="fill:#FF9811;" d="M99.859,247.5c0-39.223-31.911-71.133-71.134-71.133H0V227.5h49.859v40H0v51.133h28.726
		C67.949,318.633,99.859,286.723,99.859,247.5z"/>
	<path style="fill:#FF9811;" d="M217.5,247.5c0,8.863,3.868,16.838,10,22.335v-44.67C221.368,230.662,217.5,238.637,217.5,247.5z"/>
	<path style="fill:#FFF5CC;" d="M317.5,247.5c0-31.651-21.118-58.446-50-67.074V71.48h-40v352.04h40V314.574
		C296.382,305.946,317.5,279.151,317.5,247.5z M277.5,247.5c0,8.863-3.868,16.838-10,22.335v-44.67
		C273.632,230.662,277.5,238.637,277.5,247.5z"/>
	<path style="fill:#FFFFFF;" d="M177.5,247.5c0,31.651,21.118,58.446,50,67.074v-44.739c-6.132-5.497-10-13.472-10-22.335
		s3.868-16.838,10-22.335v-44.739C198.618,189.054,177.5,215.849,177.5,247.5z"/>
	<path style="fill:#FFF5CC;" d="M355.141,247.5c0,61.279,49.854,111.133,111.134,111.133H495v-40h-28.726
		c-39.223,0-71.134-31.91-71.134-71.133s31.911-71.133,71.134-71.133H495v-40h-28.726
		C404.995,136.367,355.141,186.221,355.141,247.5z"/>
	<path style="fill:#FFFFFF;" d="M139.859,247.5c0-61.279-49.854-111.133-111.134-111.133H0v40h28.726
		c39.223,0,71.134,31.91,71.134,71.133s-31.911,71.133-71.134,71.133H0v40h28.726C90.005,358.633,139.859,308.779,139.859,247.5z"/>
	<rect x="445.141" y="227.5" style="fill:#FFF5CC;" width="49.859" height="40"/>
	<rect y="227.5" style="fill:#FFFFFF;" width="49.859" height="40"/>
</g>
<g>
</g>
<g>
</g>
<g>
</g>
<g>
</g>
<g>
</g>
<g>
</g>
<g>
</g>
<g>
</g>
<g>
</g>
<g>
</g>
<g>
</g>
<g>
</g>
<g>
</g>
<g>
</g>
<g>
</g>
</svg>
