<?xml version="1.0" encoding="iso-8859-1"?>
<!-- Generator: Adobe Illustrator 19.0.0, SVG Export Plug-In . SVG Version: 6.00 Build 0)  -->
<svg version="1.1" id="Layer_1" xmlns="http://www.w3.org/2000/svg" xmlns:xlink="http://www.w3.org/1999/xlink" x="0px" y="0px"
	 viewBox="0 0 495 495" style="enable-background:new 0 0 495 495;" xml:space="preserve">
<g>
	<path style="fill:#FF3F62;" d="M211.717,104.367c0-19.731,16.052-35.783,35.783-35.783V0C111.028,0,0,111.028,0,247.5
		S111.028,495,247.5,495V140.151C227.769,140.151,211.717,124.098,211.717,104.367z M175.934,235.572
		c-19.731,0-35.783-16.052-35.783-35.783c0-19.731,16.052-35.783,35.783-35.783s35.783,16.052,35.783,35.783
		C211.717,219.52,195.665,235.572,175.934,235.572z"/>
	<path style="fill:#FF0C38;" d="M247.5,0v68.584c19.731,0,35.783,16.052,35.783,35.783c0,19.731-16.052,35.783-35.783,35.783V495
		C383.972,495,495,383.972,495,247.5S383.972,0,247.5,0z M319.066,235.572c-19.731,0-35.783-16.052-35.783-35.783
		c0-19.731,16.052-35.783,35.783-35.783s35.783,16.052,35.783,35.783C354.849,219.52,338.797,235.572,319.066,235.572z"/>
	<path style="fill:#C70024;" d="M175.934,164.006c-19.731,0-35.783,16.052-35.783,35.783c0,19.731,16.052,35.783,35.783,35.783
		s35.783-16.052,35.783-35.783C211.717,180.058,195.665,164.006,175.934,164.006z"/>
	<path style="fill:#830018;" d="M319.066,164.006c-19.731,0-35.783,16.052-35.783,35.783c0,19.731,16.052,35.783,35.783,35.783
		s35.783-16.052,35.783-35.783C354.849,180.058,338.797,164.006,319.066,164.006z"/>
	<path style="fill:#830018;" d="M211.717,104.367c0,19.731,16.052,35.783,35.783,35.783s35.783-16.052,35.783-35.783
		c0-19.731-16.052-35.783-35.783-35.783S211.717,84.637,211.717,104.367z"/>
</g>
<g>
</g>
<g>
</g>
<g>
</g>
<g>
</g>
<g>
</g>
<g>
</g>
<g>
</g>
<g>
</g>
<g>
</g>
<g>
</g>
<g>
</g>
<g>
</g>
<g>
</g>
<g>
</g>
<g>
</g>
</svg>
