<?xml version="1.0" encoding="iso-8859-1"?>
<!-- Generator: Adobe Illustrator 19.0.0, SVG Export Plug-In . SVG Version: 6.00 Build 0)  -->
<svg version="1.1" id="Layer_1" xmlns="http://www.w3.org/2000/svg" xmlns:xlink="http://www.w3.org/1999/xlink" x="0px" y="0px"
	 viewBox="0 0 495 495" style="enable-background:new 0 0 495 495;" xml:space="preserve">
<g>
	<polygon style="fill:#FFE477;" points="389.08,300.303 301.225,300.303 301.225,381.049 261.225,381.049 261.225,300.303 
		233.775,300.303 233.775,435.445 193.775,435.445 193.775,300.303 105.92,300.303 105.92,260.303 373.783,260.303 247.5,95.225 
		178.603,5.157 105.919,22.455 0,117.408 52.829,199.186 105.919,174.305 105.919,489.843 389.081,489.843 389.081,280.301 	"/>
	<polygon style="fill:#FFD422;" points="389.081,22.455 316.397,5.157 247.5,95.225 373.783,260.303 389.08,260.303 389.08,280.299 
		389.081,174.305 442.171,199.186 495,117.408 	"/>
	<rect x="193.775" y="300.303" style="fill:#1D1D1F;" width="40" height="135.141"/>
	<rect x="261.225" y="300.303" style="fill:#3E3D42;" width="40" height="80.746"/>
	<rect x="247.5" y="260.303" style="fill:#1D1D1F;" width="141.58" height="40"/>
	<rect x="105.92" y="260.303" style="fill:#3E3D42;" width="141.58" height="40"/>
</g>
<g>
</g>
<g>
</g>
<g>
</g>
<g>
</g>
<g>
</g>
<g>
</g>
<g>
</g>
<g>
</g>
<g>
</g>
<g>
</g>
<g>
</g>
<g>
</g>
<g>
</g>
<g>
</g>
<g>
</g>
</svg>
