<?xml version="1.0" encoding="iso-8859-1"?>
<!-- Generator: Adobe Illustrator 19.0.0, SVG Export Plug-In . SVG Version: 6.00 Build 0)  -->
<svg version="1.1" id="Layer_1" xmlns="http://www.w3.org/2000/svg" xmlns:xlink="http://www.w3.org/1999/xlink" x="0px" y="0px"
	 viewBox="0 0 512 512" style="enable-background:new 0 0 512 512;" xml:space="preserve">
<rect x="204.8" y="307.2" style="fill:#00D2B9;" width="102.4" height="179.2"/>
<polygon style="fill:#00BEA9;" points="307.2,307.2 204.8,307.2 170.667,247.467 341.333,247.467 "/>
<rect x="247.467" y="238.933" style="fill:#D24146;" width="17.067" height="247.467"/>
<g>
	<path style="fill:#FFC855;" d="M334.801,350.192c-0.1-18.179-15.769-26.615-29.026-26.615c-19.491,0-31.53,18.455-37.412,30.834
		c-3.186,6.706-9.957,10.947-17.382,10.947h-28.769l9.642,38.567c5.445,0,42.833-3.282,67.661,36.374
		c1.467,2.343,4.418,3.289,6.999,2.299l0.525-0.201c2.954-1.132,4.487-4.393,3.434-7.375c-2.338-6.622-7.11-18.166-14.709-27.883
		c6.798-9.642,9.338-18.739,3.584-38.567c-3.485-12.007,4.523-15.062,9.414-15.826c1.76-0.275,3.285,1.227,3.098,2.998
		l-2.026,19.094c-0.493,1.972,0.45,4.023,2.269,4.932c1.909,0.955,4.229,0.379,5.47-1.359l13.915-19.482h8.074
		c0.861,0,1.455-0.857,1.184-1.675C339.281,352.832,334.801,350.192,334.801,350.192z"/>
	<path style="fill:#FFC855;" d="M206.142,368.572c-8.838,3.414-14.578-0.437-22.498,9.642c-5.919,7.533-3.19,25.794-12.259,33.196
		c-1.315,1.073-0.723,3.188,0.967,3.347c4.899,0.462,12.917-0.81,20.934-10.831C203.53,391.121,206.142,368.572,206.142,368.572z"/>
</g>
<path style="fill:#E15050;" d="M249.906,362.144h-21.349c-1.695,0-2.963,1.634-2.477,3.258
	c3.075,10.261,13.257,17.445,24.845,15.789c9.328-1.334,17.025-8.683,18.771-17.943c0.726-3.853,0.452-7.563-0.591-10.934
	c-0.576-1.86-2.9-2.473-4.277-1.095l-8.103,8.103C254.915,361.128,252.463,362.144,249.906,362.144z"/>
<path style="fill:#FFA54B;" d="M185.376,436.309l17.1-61.071c2.167-7.743,9.226-13.095,17.266-13.095l0,0
	c12.513,0,21.547,11.977,18.109,24.007l-4.133,14.467c-1.166,4.08-4.27,7.323-8.295,8.665l-8.368,2.789
	c-2.894,0.964-5.35,2.927-6.931,5.536l-14.115,23.306c-1.255,2.074-3.66,3.156-6.045,2.724l0,0
	C186.573,443.024,184.447,439.627,185.376,436.309z"/>
<rect x="409.6" y="238.933" style="fill:#D24146;" width="17.067" height="247.467"/>
<g>
	<path style="fill:#FFC855;" d="M496.934,350.192c-0.1-18.179-15.769-26.615-29.026-26.615c-19.491,0-31.53,18.455-37.412,30.834
		c-3.186,6.706-9.957,10.947-17.382,10.947h-28.769l9.642,38.567c5.445,0,42.833-3.282,67.661,36.374
		c1.467,2.343,4.418,3.289,6.999,2.299l0.525-0.201c2.954-1.132,4.487-4.393,3.434-7.375c-2.338-6.622-7.11-18.166-14.709-27.883
		c6.798-9.642,9.338-18.739,3.584-38.567c-3.485-12.007,4.523-15.062,9.414-15.826c1.76-0.275,3.285,1.227,3.098,2.998
		l-2.026,19.094c-0.493,1.972,0.45,4.023,2.269,4.932c1.909,0.955,4.229,0.379,5.47-1.359l13.915-19.482h8.074
		c0.861,0,1.455-0.857,1.184-1.675C501.414,352.832,496.934,350.192,496.934,350.192z"/>
	<path style="fill:#FFC855;" d="M368.275,368.572c-8.838,3.414-14.578-0.437-22.498,9.642c-5.919,7.533-3.19,25.794-12.259,33.196
		c-1.315,1.073-0.723,3.188,0.967,3.347c4.899,0.462,12.917-0.81,20.934-10.831C365.663,391.121,368.275,368.572,368.275,368.572z"
		/>
</g>
<path style="fill:#E15050;" d="M412.039,362.144H390.69c-1.695,0-2.963,1.634-2.477,3.258c3.075,10.261,13.257,17.445,24.845,15.789
	c9.328-1.334,17.025-8.683,18.771-17.943c0.726-3.853,0.452-7.563-0.591-10.934c-0.576-1.86-2.9-2.473-4.276-1.095l-8.103,8.103
	C417.049,361.128,414.596,362.144,412.039,362.144z"/>
<path style="fill:#FFA54B;" d="M347.509,436.309l17.1-61.071c2.167-7.743,9.226-13.095,17.266-13.095l0,0
	c12.513,0,21.547,11.977,18.109,24.007l-4.133,14.467c-1.166,4.08-4.27,7.323-8.295,8.665l-8.368,2.789
	c-2.894,0.964-5.35,2.927-6.931,5.536l-14.115,23.306c-1.255,2.074-3.66,3.156-6.045,2.724l0,0
	C348.706,443.024,346.58,439.627,347.509,436.309z"/>
<rect x="85.333" y="238.933" style="fill:#D24146;" width="17.067" height="247.467"/>
<g>
	<path style="fill:#FFC855;" d="M172.668,350.192c-0.1-18.179-15.769-26.615-29.026-26.615c-19.491,0-31.53,18.455-37.412,30.834
		c-3.186,6.706-9.957,10.947-17.382,10.947H60.078l9.642,38.567c5.445,0,42.833-3.282,67.661,36.374
		c1.467,2.343,4.418,3.289,6.999,2.299l0.525-0.201c2.954-1.132,4.487-4.393,3.434-7.375c-2.338-6.622-7.11-18.166-14.709-27.883
		c6.798-9.642,9.338-18.739,3.584-38.567c-3.485-12.007,4.523-15.062,9.414-15.826c1.76-0.275,3.285,1.227,3.098,2.998
		l-2.026,19.094c-0.493,1.972,0.45,4.023,2.269,4.932c1.909,0.955,4.229,0.379,5.47-1.359l13.915-19.482h8.074
		c0.861,0,1.455-0.857,1.184-1.675C177.148,352.832,172.668,350.192,172.668,350.192z"/>
	<path style="fill:#FFC855;" d="M44.009,368.572c-8.838,3.414-14.578-0.437-22.498,9.642c-5.919,7.533-3.19,25.794-12.259,33.196
		c-1.315,1.073-0.723,3.188,0.967,3.347c4.899,0.462,12.917-0.81,20.934-10.831C41.396,391.121,44.009,368.572,44.009,368.572z"/>
</g>
<path style="fill:#E15050;" d="M87.773,362.144H66.423c-1.695,0-2.963,1.634-2.477,3.258c3.075,10.261,13.257,17.445,24.845,15.789
	c9.328-1.334,17.025-8.683,18.771-17.943c0.726-3.853,0.452-7.563-0.591-10.934c-0.576-1.86-2.9-2.473-4.277-1.095l-8.103,8.103
	C92.782,361.128,90.33,362.144,87.773,362.144z"/>
<path style="fill:#FFA54B;" d="M23.243,436.309l17.1-61.071c2.167-7.743,9.226-13.095,17.266-13.095l0,0
	c12.513,0,21.547,11.977,18.109,24.007l-4.133,14.467c-1.166,4.08-4.27,7.323-8.295,8.665l-8.368,2.789
	c-2.894,0.964-5.35,2.927-6.931,5.536l-14.115,23.306c-1.255,2.074-3.66,3.156-6.045,2.724l0,0
	C24.439,443.024,22.314,439.627,23.243,436.309z"/>
<path style="fill:#E15050;" d="M325.389,17.067H256v51.2h69.389c6.816,0,10.881-7.596,7.1-13.267l-8.222-12.333l8.222-12.333
	C336.27,24.662,332.204,17.067,325.389,17.067z"/>
<path style="fill:#FFD7B9;" d="M460.8,247.467c0,14.139,11.461,25.6,25.6,25.6s25.6-11.461,25.6-25.6H460.8z"/>
<path style="fill:#D24146;" d="M409.6,247.467c0,14.139,11.461,25.6,25.6,25.6s25.6-11.461,25.6-25.6H409.6z"/>
<path style="fill:#FFD7B9;" d="M358.4,247.467c0,14.139,11.461,25.6,25.6,25.6s25.6-11.461,25.6-25.6H358.4z"/>
<path style="fill:#D24146;" d="M307.2,247.467c0,14.139,11.461,25.6,25.6,25.6s25.6-11.461,25.6-25.6H307.2z"/>
<path style="fill:#FFD7B9;" d="M256,247.467c0,14.139,11.461,25.6,25.6,25.6s25.6-11.461,25.6-25.6H256z"/>
<path style="fill:#D24146;" d="M204.8,247.467c0,14.139,11.461,25.6,25.6,25.6s25.6-11.461,25.6-25.6H204.8z"/>
<path style="fill:#FFD7B9;" d="M153.6,247.467c0,14.139,11.461,25.6,25.6,25.6s25.6-11.461,25.6-25.6H153.6z"/>
<path style="fill:#D24146;" d="M102.4,247.467c0,14.139,11.461,25.6,25.6,25.6c14.139,0,25.6-11.461,25.6-25.6H102.4z"/>
<path style="fill:#FFD7B9;" d="M51.2,247.467c0,14.139,11.461,25.6,25.6,25.6s25.6-11.461,25.6-25.6H51.2z"/>
<path style="fill:#D24146;" d="M0,247.467c0,14.139,11.461,25.6,25.6,25.6s25.6-11.461,25.6-25.6H0z"/>
<polyline style="fill:#E15050;" points="512,247.467 256,85.333 0,247.467 "/>
<g>
	<polygon style="fill:#FFF5E1;" points="256,85.333 51.2,247.467 102.4,247.467 	"/>
	<polygon style="fill:#FFF5E1;" points="256,85.333 153.6,247.467 204.8,247.467 	"/>
	<polygon style="fill:#FFF5E1;" points="256,247.467 256,85.333 307.2,247.467 	"/>
	<polygon style="fill:#FFF5E1;" points="358.4,247.467 256,85.333 409.6,247.467 	"/>
	<polygon style="fill:#FFF5E1;" points="460.8,247.467 256,85.333 512,247.467 	"/>
</g>
<path style="fill:#D24146;" d="M264.533,93.867h-17.067v-76.8c0-4.713,3.821-8.533,8.533-8.533l0,0c4.713,0,8.533,3.821,8.533,8.533
	V93.867z"/>
<path style="fill:#E15050;" d="M296.421,110.933l-31.29-19.817c-5.575-3.532-12.688-3.532-18.263,0l-31.29,19.817H296.421z"/>
<path style="fill:#00BEA9;" d="M315.733,494.933H196.267v-25.6c0-4.713,3.821-8.533,8.533-8.533h102.4
	c4.713,0,8.533,3.821,8.533,8.533V494.933z"/>
<path style="fill:#E15050;" d="M486.4,503.467H25.6c-4.713,0-8.533-3.821-8.533-8.533V486.4c0-4.713,3.821-8.533,8.533-8.533h460.8
	c4.713,0,8.533,3.821,8.533,8.533v8.533C494.933,499.646,491.113,503.467,486.4,503.467z"/>
<g>
</g>
<g>
</g>
<g>
</g>
<g>
</g>
<g>
</g>
<g>
</g>
<g>
</g>
<g>
</g>
<g>
</g>
<g>
</g>
<g>
</g>
<g>
</g>
<g>
</g>
<g>
</g>
<g>
</g>
</svg>
